<mxfile host="app.diagrams.net" agent="Mozilla/5.0 (Windows NT 10.0; Win64; x64) AppleWebKit/537.36 (KHTML, like Gecko) Chrome/140.0.0.0 Safari/537.36" version="28.2.4">
  <diagram name="Страница — 1" id="TsI54QwjeJPFeCZirLI2">
    <mxGraphModel dx="1665" dy="823" grid="1" gridSize="10" guides="1" tooltips="1" connect="1" arrows="1" fold="1" page="1" pageScale="1" pageWidth="827" pageHeight="1169" math="0" shadow="0">
      <root>
        <mxCell id="0" />
        <mxCell id="1" parent="0" />
        <mxCell id="-x5cxk2olKUJqHR8dhol-26" value="Street" style="swimlane;fontStyle=0;childLayout=stackLayout;horizontal=1;startSize=20;horizontalStack=0;resizeParent=1;resizeParentMax=0;resizeLast=0;collapsible=1;marginBottom=0;whiteSpace=wrap;html=1;" parent="1" vertex="1">
          <mxGeometry x="50" y="340" width="140" height="230" as="geometry" />
        </mxCell>
        <mxCell id="-x5cxk2olKUJqHR8dhol-27" value="Модель" style="text;strokeColor=none;fillColor=none;align=left;verticalAlign=middle;spacingLeft=4;spacingRight=4;overflow=hidden;points=[[0,0.5],[1,0.5]];portConstraint=eastwest;rotatable=0;whiteSpace=wrap;html=1;" parent="-x5cxk2olKUJqHR8dhol-26" vertex="1">
          <mxGeometry y="20" width="140" height="30" as="geometry" />
        </mxCell>
        <mxCell id="-x5cxk2olKUJqHR8dhol-31" value="Индекс цветопередачи" style="text;strokeColor=none;fillColor=none;align=left;verticalAlign=middle;spacingLeft=4;spacingRight=4;overflow=hidden;points=[[0,0.5],[1,0.5]];portConstraint=eastwest;rotatable=0;whiteSpace=wrap;html=1;" parent="-x5cxk2olKUJqHR8dhol-26" vertex="1">
          <mxGeometry y="50" width="140" height="30" as="geometry" />
        </mxCell>
        <mxCell id="-x5cxk2olKUJqHR8dhol-32" value="Гарантия" style="text;strokeColor=none;fillColor=none;align=left;verticalAlign=middle;spacingLeft=4;spacingRight=4;overflow=hidden;points=[[0,0.5],[1,0.5]];portConstraint=eastwest;rotatable=0;whiteSpace=wrap;html=1;" parent="-x5cxk2olKUJqHR8dhol-26" vertex="1">
          <mxGeometry y="80" width="140" height="30" as="geometry" />
        </mxCell>
        <mxCell id="-x5cxk2olKUJqHR8dhol-33" value="Грозозащита" style="text;strokeColor=none;fillColor=none;align=left;verticalAlign=middle;spacingLeft=4;spacingRight=4;overflow=hidden;points=[[0,0.5],[1,0.5]];portConstraint=eastwest;rotatable=0;whiteSpace=wrap;html=1;" parent="-x5cxk2olKUJqHR8dhol-26" vertex="1">
          <mxGeometry y="110" width="140" height="30" as="geometry" />
        </mxCell>
        <mxCell id="-x5cxk2olKUJqHR8dhol-34" value="Материал тип рассеивания" style="text;strokeColor=none;fillColor=none;align=left;verticalAlign=middle;spacingLeft=4;spacingRight=4;overflow=hidden;points=[[0,0.5],[1,0.5]];portConstraint=eastwest;rotatable=0;whiteSpace=wrap;html=1;" parent="-x5cxk2olKUJqHR8dhol-26" vertex="1">
          <mxGeometry y="140" width="140" height="30" as="geometry" />
        </mxCell>
        <mxCell id="-x5cxk2olKUJqHR8dhol-35" value="Количество светодиодов" style="text;strokeColor=none;fillColor=none;align=left;verticalAlign=middle;spacingLeft=4;spacingRight=4;overflow=hidden;points=[[0,0.5],[1,0.5]];portConstraint=eastwest;rotatable=0;whiteSpace=wrap;html=1;" parent="-x5cxk2olKUJqHR8dhol-26" vertex="1">
          <mxGeometry y="170" width="140" height="30" as="geometry" />
        </mxCell>
        <mxCell id="YqT4pihxFZAE9TEV8UmL-1" value="Фото" style="text;strokeColor=none;fillColor=none;align=left;verticalAlign=middle;spacingLeft=4;spacingRight=4;overflow=hidden;points=[[0,0.5],[1,0.5]];portConstraint=eastwest;rotatable=0;whiteSpace=wrap;html=1;" vertex="1" parent="-x5cxk2olKUJqHR8dhol-26">
          <mxGeometry y="200" width="140" height="30" as="geometry" />
        </mxCell>
        <mxCell id="-x5cxk2olKUJqHR8dhol-37" value="Модель" style="swimlane;fontStyle=0;childLayout=stackLayout;horizontal=1;startSize=30;horizontalStack=0;resizeParent=1;resizeParentMax=0;resizeLast=0;collapsible=1;marginBottom=0;whiteSpace=wrap;html=1;" parent="1" vertex="1">
          <mxGeometry x="250" y="340" width="140" height="60" as="geometry" />
        </mxCell>
        <mxCell id="-x5cxk2olKUJqHR8dhol-38" value="Артикул" style="text;strokeColor=none;fillColor=none;align=left;verticalAlign=middle;spacingLeft=4;spacingRight=4;overflow=hidden;points=[[0,0.5],[1,0.5]];portConstraint=eastwest;rotatable=0;whiteSpace=wrap;html=1;" parent="-x5cxk2olKUJqHR8dhol-37" vertex="1">
          <mxGeometry y="30" width="140" height="30" as="geometry" />
        </mxCell>
        <mxCell id="-x5cxk2olKUJqHR8dhol-41" value="Артикул" style="swimlane;fontStyle=0;childLayout=stackLayout;horizontal=1;startSize=30;horizontalStack=0;resizeParent=1;resizeParentMax=0;resizeLast=0;collapsible=1;marginBottom=0;whiteSpace=wrap;html=1;" parent="1" vertex="1">
          <mxGeometry x="450" y="340" width="140" height="120" as="geometry" />
        </mxCell>
        <mxCell id="-x5cxk2olKUJqHR8dhol-42" value="Мощность" style="text;strokeColor=none;fillColor=none;align=left;verticalAlign=middle;spacingLeft=4;spacingRight=4;overflow=hidden;points=[[0,0.5],[1,0.5]];portConstraint=eastwest;rotatable=0;whiteSpace=wrap;html=1;" parent="-x5cxk2olKUJqHR8dhol-41" vertex="1">
          <mxGeometry y="30" width="140" height="30" as="geometry" />
        </mxCell>
        <mxCell id="-x5cxk2olKUJqHR8dhol-43" value="световой поток" style="text;strokeColor=none;fillColor=none;align=left;verticalAlign=middle;spacingLeft=4;spacingRight=4;overflow=hidden;points=[[0,0.5],[1,0.5]];portConstraint=eastwest;rotatable=0;whiteSpace=wrap;html=1;" parent="-x5cxk2olKUJqHR8dhol-41" vertex="1">
          <mxGeometry y="60" width="140" height="30" as="geometry" />
        </mxCell>
        <mxCell id="-x5cxk2olKUJqHR8dhol-44" value="стоимость" style="text;strokeColor=none;fillColor=none;align=left;verticalAlign=middle;spacingLeft=4;spacingRight=4;overflow=hidden;points=[[0,0.5],[1,0.5]];portConstraint=eastwest;rotatable=0;whiteSpace=wrap;html=1;" parent="-x5cxk2olKUJqHR8dhol-41" vertex="1">
          <mxGeometry y="90" width="140" height="30" as="geometry" />
        </mxCell>
        <mxCell id="-x5cxk2olKUJqHR8dhol-45" value="стоимость" style="swimlane;fontStyle=0;childLayout=stackLayout;horizontal=1;startSize=30;horizontalStack=0;resizeParent=1;resizeParentMax=0;resizeLast=0;collapsible=1;marginBottom=0;whiteSpace=wrap;html=1;" parent="1" vertex="1">
          <mxGeometry x="640" y="340" width="140" height="60" as="geometry" />
        </mxCell>
        <mxCell id="-x5cxk2olKUJqHR8dhol-46" value="тип заказа" style="text;strokeColor=none;fillColor=none;align=left;verticalAlign=middle;spacingLeft=4;spacingRight=4;overflow=hidden;points=[[0,0.5],[1,0.5]];portConstraint=eastwest;rotatable=0;whiteSpace=wrap;html=1;" parent="-x5cxk2olKUJqHR8dhol-45" vertex="1">
          <mxGeometry y="30" width="140" height="30" as="geometry" />
        </mxCell>
        <mxCell id="-x5cxk2olKUJqHR8dhol-50" style="edgeStyle=orthogonalEdgeStyle;rounded=0;orthogonalLoop=1;jettySize=auto;html=1;entryX=0;entryY=0.25;entryDx=0;entryDy=0;" parent="1" source="-x5cxk2olKUJqHR8dhol-27" target="-x5cxk2olKUJqHR8dhol-37" edge="1">
          <mxGeometry relative="1" as="geometry" />
        </mxCell>
        <mxCell id="-x5cxk2olKUJqHR8dhol-51" style="edgeStyle=orthogonalEdgeStyle;rounded=0;orthogonalLoop=1;jettySize=auto;html=1;entryX=0.029;entryY=0.15;entryDx=0;entryDy=0;entryPerimeter=0;" parent="1" source="-x5cxk2olKUJqHR8dhol-38" target="-x5cxk2olKUJqHR8dhol-41" edge="1">
          <mxGeometry relative="1" as="geometry" />
        </mxCell>
        <mxCell id="-x5cxk2olKUJqHR8dhol-52" style="edgeStyle=orthogonalEdgeStyle;rounded=0;orthogonalLoop=1;jettySize=auto;html=1;entryX=0;entryY=0.25;entryDx=0;entryDy=0;" parent="1" source="-x5cxk2olKUJqHR8dhol-44" target="-x5cxk2olKUJqHR8dhol-45" edge="1">
          <mxGeometry relative="1" as="geometry" />
        </mxCell>
        <mxCell id="-x5cxk2olKUJqHR8dhol-53" value="Заказчик" style="swimlane;fontStyle=0;childLayout=stackLayout;horizontal=1;startSize=30;horizontalStack=0;resizeParent=1;resizeParentMax=0;resizeLast=0;collapsible=1;marginBottom=0;whiteSpace=wrap;html=1;" parent="1" vertex="1">
          <mxGeometry x="220" y="460" width="140" height="60" as="geometry" />
        </mxCell>
        <mxCell id="-x5cxk2olKUJqHR8dhol-56" value="Артикул" style="text;strokeColor=none;fillColor=none;align=left;verticalAlign=middle;spacingLeft=4;spacingRight=4;overflow=hidden;points=[[0,0.5],[1,0.5]];portConstraint=eastwest;rotatable=0;whiteSpace=wrap;html=1;" parent="-x5cxk2olKUJqHR8dhol-53" vertex="1">
          <mxGeometry y="30" width="140" height="30" as="geometry" />
        </mxCell>
        <mxCell id="-x5cxk2olKUJqHR8dhol-59" style="edgeStyle=orthogonalEdgeStyle;rounded=0;orthogonalLoop=1;jettySize=auto;html=1;entryX=-0.007;entryY=0.108;entryDx=0;entryDy=0;entryPerimeter=0;" parent="1" source="-x5cxk2olKUJqHR8dhol-56" target="-x5cxk2olKUJqHR8dhol-41" edge="1">
          <mxGeometry relative="1" as="geometry" />
        </mxCell>
      </root>
    </mxGraphModel>
  </diagram>
</mxfile>
